<?xml version="1.0" encoding="UTF-8"?>
<!-- Generator: Adobe Illustrator 16.0.0, SVG Export Plug-In . SVG Version: 6.00 Build 0)  -->
<!DOCTYPE svg PUBLIC "-//W3C//DTD SVG 1.1//EN" "http://www.w3.org/Graphics/SVG/1.1/DTD/svg11.dtd">
<svg version="1.1" id="Слой_1" xmlns="http://www.w3.org/2000/svg" xmlns:xlink="http://www.w3.org/1999/xlink" x="0px" y="0px" width="18.0083008px" height="44.9672852px" viewBox="0 0 18.0083008 44.9672852" enable-background="new 0 0 18.0083008 44.9672852" xml:space="preserve">
<path fill="#FFFFFF" d="M17.2270508,0.0620117L0.2524414,9.0073242c-0.3325195,0.175293-0.3374023,0.6616211-0.0087891,0.8442383  l3.7802734,2.097168l10.0917969-7.8901367l-8.5546875,9.0717773l-0.0112305,5.2988281  c-0.0009766,0.4824219,0.5600586,0.734375,0.9038086,0.4042969l3.109375-2.9824219  c0.1738281-0.1660156,0.4335938-0.1953125,0.6386719-0.0722656l4.2050781,2.5351563  c0.5888672,0.3554688,1.3398438-0.0214844,1.4296875-0.7167969L18.0043945,0.625  C18.0610352,0.1835938,17.6118164-0.1411133,17.2270508,0.0620117z"/>
<path fill="#40AADA" d="M17.2270508,26.0454102L0.2524414,34.9907227c-0.3325195,0.1748047-0.3374023,0.6611328-0.0087891,0.8447266  l3.7802734,2.0957031l10.0917969-7.8886719l-8.5546875,9.0722656l-0.0112305,5.2978516  c-0.0009766,0.4833984,0.5600586,0.734375,0.9038086,0.4052734l3.109375-2.9833984  c0.1738281-0.1669922,0.4335938-0.1962891,0.6386719-0.0722656l4.2050781,2.5361328  c0.5888672,0.3554688,1.3398438-0.0224609,1.4296875-0.71875l2.1679688-16.9707031  C18.0610352,26.1674805,17.6118164,25.8422852,17.2270508,26.0454102z"/>
</svg>